<svg version="1.1" xmlns="http://www.w3.org/2000/svg" xmlns:xlink="http://www.w3.org/1999/xlink" width="48" height="48"><defs><linearGradient x1="12.76674" y1="14.76353" x2="41.03298" y2="39.03623" gradientUnits="userSpaceOnUse" id="color-1"><stop offset="0.22" stop-color="#000000" stop-opacity="0.52"></stop><stop offset="1" stop-color="#000000" stop-opacity="0"></stop></linearGradient><linearGradient x1="33.625" y1="14.375" x2="43" y2="23.75" gradientUnits="userSpaceOnUse" id="color-2"><stop offset="0" stop-color="#000000" stop-opacity="0.52"></stop><stop offset="1" stop-color="#000000" stop-opacity="0"></stop></linearGradient><filter id="dropshadow-base"><feColorMatrix type="matrix" values="0 0 0 0 0  0 0 0 0 0  0 0 0 0 0  0 0 0 .8 0"></feColorMatrix> <feOffset dx="0" dy="1"></feOffset> <feGaussianBlur stdDeviation="1"></feGaussianBlur> <feComposite in="SourceGraphic"></feComposite></filter><filter id="dropshadow-banner" x="-10%" y="-10%" width="120%" height="130%"><feColorMatrix type="matrix" values="0 0 0 0 0  0 0 0 0 0  0 0 0 0 0  0 0 0 .4 0"></feColorMatrix> <feOffset dx="0" dy="1"></feOffset> <feGaussianBlur stdDeviation="0.5"></feGaussianBlur> <feComposite in="SourceGraphic"></feComposite></filter></defs><g fill="none" fill-rule="nonzero" stroke="none" stroke-width="none" stroke-linecap="butt" stroke-linejoin="miter" stroke-miterlimit="10" stroke-dasharray="" stroke-dashoffset="0" font-family="none" font-weight="none" font-size="none" text-anchor="none" style="mix-blend-mode: normal"><path d="M7,43c-1.10457,0 -2,-0.89543 -2,-2v-34c0,-1.10457 0.89543,-2 2,-2l26,0l10,10v26c0,1.10457 -0.89543,2 -2,2z" id="base 1 5 1 2" fill="#eac1c1" stroke-width="1"></path><path d="M18.56759,31.65961c1.42411,1.3868 1.65219,1.57688 1.7477,1.57688c0.03088,0 0.06517,-0.00975 0.11843,-0.04318c-0.37854,-0.37481 -0.70894,-0.70329 -0.97352,-0.96786l-0.79681,-0.79681c-0.0555,0.05859 -0.08521,0.09196 -0.08643,0.09742c-0.00925,0.03699 -0.01237,0.08827 -0.00937,0.13355zM22.22774,31.12396l1.79611,-1.76819l1.12605,1.11675c0.61886,0.60956 1.44247,1.42386 1.83333,1.80542l0.70263,0.69332l0.18612,-0.15821c0.3,-0.25971 6.68808,-6.53854 7.18215,-7.0576c-0.66608,-0.65416 -1.39478,-1.37007 -2.1874,-2.14902c-1.30754,-1.27961 -2.51735,-2.46617 -2.69882,-2.63833l-0.00019,-0.00019c-0.31161,-0.29299 -0.41394,-0.35809 -0.45116,-0.27435c-0.00465,0.02328 -2.47546,2.45221 -5.48139,5.4023c-2.81098,2.76312 -5.14587,5.07456 -5.4369,5.38558c1.10233,1.06917 1.5402,1.46974 1.5682,1.44795c0.03723,-0.02326 0.8748,-0.83756 1.86126,-1.80542zM35.23324,25.81007c0,-0.02161 -0.00856,-0.04853 -0.04045,-0.09577c-3.59934,-3.53649 -4.79296,-4.69584 -5.19655,-5.03014c2.93174,2.87849 4.46543,4.37907 4.73914,4.64199c0.03022,0.02881 0.05938,0.05731 0.08709,0.08502l0.41021,0.41021c0.00039,-0.00389 0.00056,-0.00764 0.00056,-0.01132zM23.12113,15.49407c0.62817,-0.60956 0.77242,-0.73054 0.88875,-0.73054c0.12098,0 0.83291,0.67936 5.68148,5.44417c2.23164,2.19542 3.56955,3.51277 4.36936,4.31258l5.79974,5.79974c1.04962,1.04962 1.17252,1.20793 1.17252,1.28979c0,0.14425 -0.26523,0.41414 -3.65737,3.75509c-2.01016,1.98223 -3.70855,3.62014 -3.76904,3.6434c-0.06979,0.02791 -0.15356,0.02791 -0.22335,0c-0.06514,-0.02326 -0.88875,-0.80034 -1.83333,-1.72632c-0.94923,-0.93063 -1.73562,-1.68909 -1.75423,-1.68909c-0.01861,0 -0.81896,0.77242 -1.78216,1.72166c-1.56346,1.53554 -1.76353,1.72166 -1.89848,1.72166c-0.13028,0 -0.50719,-0.35365 -3.82953,-3.61549c-1.08469,-1.06475 -2.06649,-2.03729 -2.74705,-2.71785l-5.79974,-5.79974c-0.58941,-0.58941 -0.95286,-0.9598 -0.9615,-0.9814c-0.01396,-0.05119 -0.01396,-0.1396 0,-0.19544c0.01861,-0.08376 6.74239,-6.73308 10.34392,-10.23224z" fill="url(#color-1)" stroke-width="1"></path><path d="M23.12114,15.49407c-3.60153,3.49916 -10.32531,10.14849 -10.34392,10.23225c-0.01396,0.05584 -0.01396,0.14425 0,0.19543c0.01861,0.04653 1.68444,1.71235 3.70855,3.69924c3.32234,3.26185 3.69924,3.61549 3.82953,3.61549c0.13494,0 0.33503,-0.18613 1.89848,-1.72166c0.9632,-0.94924 1.76354,-1.72166 1.78215,-1.72166c0.01861,0 0.80499,0.75846 1.75423,1.68909c0.94459,0.92597 1.76819,1.70305 1.83334,1.72631c0.0698,0.02792 0.15355,0.02792 0.22335,0c0.06049,-0.02327 1.75889,-1.66117 3.76904,-3.64341c3.39214,-3.34095 3.65737,-3.61083 3.65737,-3.75508c0,-0.14425 -0.38156,-0.5258 -5.54189,-5.60238c-4.84857,-4.76481 -5.5605,-5.44417 -5.68148,-5.44417c-0.11633,0 -0.26058,0.12098 -0.88875,0.73054zM24.36818,15.16835c0.18147,0.17217 1.39129,1.35872 2.69882,2.63833c4.85787,4.77412 7.31473,7.17979 7.66837,7.51947c0.20008,0.19078 0.35364,0.3676 0.34899,0.39552c-0.01396,0.05118 -6.9006,6.8215 -7.21236,7.09138l-0.18613,0.15821l-0.70262,-0.69332c-0.39086,-0.38156 -1.21447,-1.19586 -1.83334,-1.80542l-1.12606,-1.11675l-1.79611,1.76819c-0.98646,0.96785 -1.82403,1.78215 -1.86125,1.80542c-0.04188,0.03257 -1.00042,-0.87944 -3.72716,-3.55965c-2.01946,-1.98224 -3.67132,-3.62479 -3.67132,-3.65271c0,-0.02792 2.46151,-2.46616 5.46744,-5.4209c3.00593,-2.95009 5.47674,-5.37903 5.48139,-5.40229c0.03723,-0.08376 0.13959,-0.01861 0.45135,0.27454z" fill="none" stroke-width="0"></path><path d="M24.00989,14.76352c0.12098,0 0.83291,0.67936 5.68148,5.44417c5.16033,5.07657 5.54189,5.45813 5.54189,5.60238c0,0.14425 -0.26523,0.41413 -3.65737,3.75508c-2.01015,1.98224 -3.70855,3.62014 -3.76904,3.64341c-0.0698,0.02792 -0.15355,0.02792 -0.22335,0c-0.06514,-0.02327 -0.88875,-0.80034 -1.83334,-1.72631c-0.94924,-0.93063 -1.73562,-1.68909 -1.75423,-1.68909c-0.01861,0 -0.81895,0.77242 -1.78215,1.72166c-1.56345,1.53553 -1.76354,1.72166 -1.89848,1.72166c-0.13029,0 -0.50719,-0.35364 -3.82953,-3.61549c-2.02411,-1.98689 -3.68994,-3.65271 -3.70855,-3.69924c-0.01396,-0.05118 -0.01396,-0.13959 0,-0.19543c0.01861,-0.08376 6.74239,-6.73309 10.34392,-10.23225c0.62817,-0.60956 0.77242,-0.73054 0.88875,-0.73054zM23.91683,14.89381c-0.00465,0.02327 -2.47547,2.4522 -5.48139,5.40229c-3.00593,2.95474 -5.46744,5.39298 -5.46744,5.4209c0,0.02792 1.65186,1.67048 3.67132,3.65271c2.72674,2.68021 3.68528,3.59222 3.72716,3.55965c0.03723,-0.02327 0.87479,-0.83756 1.86125,-1.80542l1.79611,-1.76819l1.12606,1.11675c0.61887,0.60956 1.44247,1.42386 1.83334,1.80542l0.70262,0.69332l0.18613,-0.15821c0.31176,-0.26988 7.1984,-7.0402 7.21236,-7.09138c0.00465,-0.02792 -0.1489,-0.20474 -0.34899,-0.39552c-0.35364,-0.33968 -2.81049,-2.74535 -7.66837,-7.51947c-1.30753,-1.27961 -2.51735,-2.46616 -2.69882,-2.63833c-0.31176,-0.29315 -0.41413,-0.35829 -0.45135,-0.27454z" fill="#ffffff" stroke-width="0"></path><path d="M2,24c0,-12.15026 9.84974,-22 22,-22c12.15026,0 22,9.84974 22,22c0,12.15026 -9.84974,22 -22,22c-12.15026,0 -22,-9.84974 -22,-22z" id="base 1 1 1" fill="none" stroke-width="1"></path><g fill="#000000" stroke-width="1" font-family="Roboto, sans-serif" font-weight="400" font-size="14" text-anchor="start"><g></g></g><rect x="2" y="2" width="44" height="22" fill="none" stroke-width="1"></rect><path d="M2,24v-22h44v22z" fill="none" stroke-width="1"></path><path d="M2,24v-22h44v22z" fill="none" stroke-width="1"></path><path d="M2,24v-22h44v22z" fill="none" stroke-width="1"></path><path d="M2,24v-22h44v22z" fill="none" stroke-width="1"></path><path d="M33.625,14.375l9.375,0.625v8.75z" fill="url(#color-2)" stroke-width="1"></path><path d="M33,5l10,10h-8c-1,0 -2,-1 -2,-2z" fill="#ffdfdf" stroke-width="1"></path></g></svg>